<?xml version="1.0" encoding="utf-8"?>
<!-- Generator: Adobe Illustrator 22.0.0, SVG Export Plug-In . SVG Version: 6.00 Build 0)  -->
<svg version="1.2" baseProfile="tiny" id="Layer_1" xmlns="http://www.w3.org/2000/svg" xmlns:xlink="http://www.w3.org/1999/xlink"
	 x="0px" y="0px" viewBox="0 0 600 100" xml:space="preserve">
<g>
	<path fill-rule="evenodd" fill="#333333" d="M188.6,28.2c0-1.6-0.9-3.1-2.3-3.9L148.7,2.6c-0.6-0.4-1.3-0.6-2.1-0.6
		c-0.1,0-0.3,0-0.4,0c-0.7,0-1.4,0.2-2.1,0.6l-37.6,21.7c-1.4,0.8-2.3,2.3-2.3,3.9l0.1,58.3c0,0.8,0.4,1.6,1.1,2
		c0.7,0.4,1.6,0.4,2.3,0l22.4-12.8c1.4-0.8,2.3-2.3,2.3-3.9V44.5c0-1.6,0.9-3.1,2.3-3.9l9.5-5.5c0.7-0.4,1.5-0.6,2.3-0.6
		c0.8,0,1.6,0.2,2.3,0.6l9.5,5.5c1.4,0.8,2.3,2.3,2.3,3.9v27.2c0,1.6,0.9,3.1,2.3,3.9l22.4,12.8c0.7,0.4,1.6,0.4,2.3,0
		c0.7-0.4,1.1-1.2,1.1-2L188.6,28.2z"/>
	<path fill-rule="evenodd" fill="#333333" d="M26.2,2.4c-1.6,0-3.1,0.9-3.9,2.3L0.6,42.3C0.2,42.9,0,43.6,0,44.3c0,0.1,0,0.3,0,0.4
		c0,0.7,0.2,1.4,0.6,2.1l21.7,37.6c0.8,1.4,2.3,2.3,3.9,2.3l58.3-0.1c0.8,0,1.6-0.4,2-1.1c0.4-0.7,0.4-1.6,0-2.3L73.7,60.9
		c-0.8-1.4-2.3-2.3-3.9-2.3H42.5c-1.6,0-3.1-0.9-3.9-2.3l-5.5-9.5c-0.4-0.7-0.6-1.5-0.6-2.3c0-0.8,0.2-1.6,0.6-2.3l5.5-9.5
		c0.8-1.4,2.3-2.3,3.9-2.3h27.2c1.6,0,3.1-0.9,3.9-2.3L86.5,5.8c0.4-0.7,0.4-1.6,0-2.3c-0.4-0.7-1.2-1.1-2-1.1L26.2,2.4z"/>
	<path fill-rule="evenodd" fill="#679E63" d="M145.8,40.6c0.3-0.2,0.6-0.2,0.9,0l7.2,4.2c0.3,0.2,0.4,0.4,0.4,0.8v8.3
		c0,0.3-0.2,0.6-0.4,0.8l-7.2,4.2c-0.3,0.2-0.6,0.2-0.9,0l-7.2-4.2c-0.3-0.2-0.4-0.4-0.4-0.8v-8.3c0-0.3,0.2-0.6,0.4-0.8L145.8,40.6
		z"/>
	<path fill-rule="evenodd" fill="#333333" d="M291.3,29.1c0-1.6-0.9-3.1-2.3-3.9L251.4,3.5c-0.6-0.4-1.3-0.6-2.1-0.6
		c-0.1,0-0.3,0-0.4,0c-0.7,0-1.4,0.2-2.1,0.6l-37.6,21.7c-1.4,0.8-2.3,2.3-2.3,3.9l0.1,58.3c0,0.8,0.4,1.6,1.1,2
		c0.7,0.4,1.6,0.4,2.3,0l22.4-12.8c1.4-0.8,2.3-2.3,2.3-3.9V45.4c0-1.6,0.9-3.1,2.3-3.9l9.5-5.5c0.7-0.4,1.5-0.6,2.3-0.6
		c0.8,0,1.6,0.2,2.3,0.6l9.5,5.5c1.4,0.8,2.3,2.3,2.3,3.9v27.2c0,1.6,0.9,3.1,2.3,3.9l22.4,12.8c0.7,0.4,1.6,0.4,2.3,0
		c0.7-0.4,1.1-1.2,1.1-2L291.3,29.1z"/>
	<path fill-rule="evenodd" fill="#333333" d="M310,63.5c0,1.6,0.9,3.1,2.3,3.9l37.6,21.7c0.6,0.4,1.3,0.6,2.1,0.6c0.1,0,0.3,0,0.4,0
		c0.7,0,1.4-0.2,2.1-0.6L392,67.5c1.4-0.8,2.3-2.3,2.3-3.9l-0.1-58.3c0-0.8-0.4-1.6-1.1-2c-0.7-0.4-1.6-0.4-2.3,0L368.5,16
		c-1.4,0.8-2.3,2.3-2.3,3.9v27.2c0,1.6-0.9,3.1-2.3,3.9l-9.5,5.5c-0.7,0.4-1.5,0.6-2.3,0.6c-0.8,0-1.6-0.2-2.3-0.6l-9.5-5.5
		c-1.4-0.8-2.3-2.3-2.3-3.9V20c0-1.6-0.9-3.1-2.3-3.9L313.4,3.2c-0.7-0.4-1.6-0.4-2.3,0c-0.7,0.4-1.1,1.2-1.1,2L310,63.5z"/>
	<path fill-rule="evenodd" fill="#333333" d="M497.3,29.1c0-1.6-0.9-3.1-2.3-3.9L457.4,3.5c-0.6-0.4-1.3-0.6-2.1-0.6
		c-0.1,0-0.3,0-0.4,0c-0.7,0-1.4,0.2-2.1,0.6l-37.6,21.7c-1.4,0.8-2.3,2.3-2.3,3.9l0.1,58.3c0,0.8,0.4,1.6,1.1,2
		c0.7,0.4,1.6,0.4,2.3,0l22.4-12.8c1.4-0.8,2.3-2.3,2.3-3.9V45.4c0-1.6,0.9-3.1,2.3-3.9l9.5-5.5c0.7-0.4,1.5-0.6,2.3-0.6
		c0.8,0,1.6,0.2,2.3,0.6l9.5,5.5c1.4,0.8,2.3,2.3,2.3,3.9v27.2c0,1.6,0.9,3.1,2.3,3.9l22.4,12.8c0.7,0.4,1.6,0.4,2.3,0
		c0.7-0.4,1.1-1.2,1.1-2L497.3,29.1z"/>
	<path fill-rule="evenodd" fill="#679E63" d="M454.5,41.5c0.3-0.2,0.6-0.2,0.9,0l7.2,4.2c0.3,0.2,0.4,0.4,0.4,0.8v8.3
		c0,0.3-0.2,0.6-0.4,0.8l-7.2,4.2c-0.3,0.2-0.6,0.2-0.9,0l-7.2-4.2c-0.3-0.2-0.4-0.4-0.4-0.8v-8.3c0-0.3,0.2-0.6,0.4-0.8L454.5,41.5
		z"/>
</g>
<linearGradient id="SVGID_1_" gradientUnits="userSpaceOnUse" x1="517.6429" y1="59.4443" x2="597.2569" y2="41.064">
	<stop  offset="0.1376" style="stop-color:#6ABF4B"/>
	<stop  offset="0.9" style="stop-color:#3DAE2B"/>
</linearGradient>
<path fill="url(#SVGID_1_)" d="M578.5,38.2C578.5,38.2,578.5,38.2,578.5,38.2c-0.2-0.1-0.3-0.2-0.4-0.2c0,0-0.1,0-0.1,0
	c-0.1-0.1-0.3-0.2-0.4-0.3c0,0-0.1,0-0.1-0.1c-1.6-0.9-3.3-1.9-5-2.9c-0.2-0.1-0.5-0.3-0.7-0.4c-0.4-0.2-0.8-0.5-1.2-0.7
	c-0.1,0-0.2-0.1-0.3-0.2c-1.6-0.9-3.2-1.8-4.8-2.7c-0.2-0.1-0.4-0.2-0.6-0.3c-1.8-1-3.5-2-5.2-3c-0.3-0.2-0.6-0.3-0.9-0.5
	c-2-1.2-4-2.3-5.8-3.4c-0.2-0.1-0.4-0.3-0.7-0.4c-0.4-0.2-0.8-0.5-1.2-0.7c-0.7-0.4-1.3-0.8-2-1.2c-1.2-0.7-2.4-1.4-3.5-2
	c-0.1-0.1-0.3-0.2-0.4-0.2c-1.6-0.9-3.1-1.8-4.3-2.5c-0.2-0.1-0.5-0.3-0.7-0.4c-0.6-0.3-1.1-0.6-1.5-0.9c-0.2-0.1-0.4-0.2-0.6-0.3
	c-0.3-0.2-0.5-0.3-0.8-0.4c-0.1,0-0.1-0.1-0.2-0.1c-0.1-0.1-0.2-0.1-0.3-0.2c-0.1,0-0.1-0.1-0.2-0.1c0,0-0.1,0-0.1-0.1l-18.7,10.8
	c-1.4,0.8-2.2,2.3-2.2,3.8v21.7c1.2,0.7,13.8,8,27.4,15.8c0.1,0,0.1,0.1,0.2,0.1c5.3,3.1,10.7,6.2,15.7,9.1c0.3,0.1,0.5,0.3,0.8,0.4
	c0.5,0.3,1,0.6,1.6,0.9c0.1,0.1,0.2,0.1,0.4,0.2c9.6,5.5,16.9,9.7,16.9,9.7c0,0,14.5-8.4,19.4-11.2c0.8-0.6,1.4-1.5,1.6-2.6
	c0-5.4,0-22.6,0-22.6C599.4,50.2,590,44.8,578.5,38.2z"/>
<linearGradient id="SVGID_2_" gradientUnits="userSpaceOnUse" x1="593.2399" y1="34.5887" x2="541.723" y2="4.8454">
	<stop  offset="0" style="stop-color:#6ABF4B"/>
	<stop  offset="1" style="stop-color:#3F873F"/>
</linearGradient>
<path fill="url(#SVGID_2_)" d="M536.8,14.1c0.1,0.1,0.2,0.1,0.3,0.2c0,0,0.1,0.1,0.2,0.1c0.2,0.1,0.5,0.3,0.8,0.4
	c0.2,0.1,0.4,0.2,0.6,0.3c0.4,0.3,1,0.6,1.5,0.9c0.2,0.1,0.5,0.3,0.7,0.4c1.2,0.7,2.7,1.6,4.3,2.5c0.1,0.1,0.3,0.2,0.4,0.2
	c1.1,0.6,2.3,1.3,3.5,2c0.6,0.4,1.3,0.8,2,1.2c0.4,0.2,0.8,0.5,1.2,0.7c0.2,0.1,0.4,0.3,0.7,0.4c1.9,1.1,3.9,2.2,5.8,3.4
	c0.3,0.2,0.6,0.3,0.9,0.5c1.8,1,3.6,2.1,5.2,3c0.2,0.1,0.4,0.2,0.6,0.3c1.7,1,3.3,1.9,4.8,2.7c0.1,0.1,0.2,0.1,0.3,0.2
	c0.4,0.2,0.8,0.5,1.2,0.7c0.2,0.1,0.5,0.3,0.7,0.4c2.2,1.3,3.9,2.3,5,2.9c0,0,0.1,0,0.1,0.1c0.2,0.1,0.3,0.2,0.4,0.3
	c0,0,0.1,0,0.1,0c0.2,0.1,0.3,0.2,0.4,0.2c0,0,0,0,0,0c0,0,0,0,0,0l17.7-10.2c1.5-0.9,1.5-3,0-3.8L559.2,2.8
	c-1.2-0.5-2.7-0.4-3.8,0.3L536.5,14c0,0,0.1,0,0.1,0.1C536.7,14,536.7,14.1,536.8,14.1z"/>
<linearGradient id="SVGID_3_" gradientUnits="userSpaceOnUse" x1="573.17" y1="95.6217" x2="521.8416" y2="65.9872">
	<stop  offset="0" style="stop-color:#6ABF4B"/>
	<stop  offset="1" style="stop-color:#3F873F"/>
</linearGradient>
<path fill="url(#SVGID_3_)" d="M561.6,76.8c-0.1-0.1-0.2-0.1-0.4-0.2c-0.5-0.3-1-0.6-1.6-0.9c-0.3-0.1-0.5-0.3-0.8-0.4
	c-5.6-3.3-11.4-6.6-15.7-9.1c-0.1,0-0.1-0.1-0.2-0.1c-3.9-2.2-6.4-3.7-6.4-3.7c0,0-11.7,6.7-17.7,10.2c-1.5,0.9-1.5,3,0,3.9l36.5,21
	c1.2,0.7,2.6,0.8,3.8,0.3c5-2.9,19.2-11.1,19.2-11.1C578.4,86.5,570.5,82,561.6,76.8z"/>
<path fill="none" stroke="#000000" stroke-miterlimit="10" d="M600,23.3"/>
<g>
</g>
<g>
</g>
<g>
</g>
<g>
</g>
<g>
</g>
</svg>
