<?xml version="1.0" encoding="utf-8"?>
<!-- Generator: Adobe Illustrator 22.0.0, SVG Export Plug-In . SVG Version: 6.00 Build 0)  -->
<svg version="1.2" baseProfile="tiny" id="Layer_1" xmlns="http://www.w3.org/2000/svg" xmlns:xlink="http://www.w3.org/1999/xlink"
	 x="0px" y="0px" viewBox="0 0 600 600" xml:space="preserve">
<g>
	<path fill-rule="evenodd" fill="#333333" d="M163.2,199.6c0-1.8-1-3.5-2.6-4.4l-42.4-24.4c-0.7-0.4-1.5-0.6-2.3-0.7
		c-0.1,0-0.4,0-0.4,0c-0.8,0-1.6,0.3-2.3,0.7l-42.4,24.4c-1.6,0.9-2.6,2.6-2.6,4.4l0.1,65.6c0,0.9,0.5,1.8,1.3,2.2
		c0.8,0.5,1.8,0.5,2.5,0L97.4,253c1.6-0.9,2.6-2.6,2.6-4.4v-30.7c0-1.8,1-3.5,2.6-4.4l10.7-6.2c0.8-0.5,1.7-0.7,2.6-0.7
		c0.9,0,1.8,0.2,2.5,0.7l10.7,6.2c1.6,0.9,2.6,2.6,2.6,4.4v30.7c0,1.8,1,3.5,2.6,4.4l25.2,14.4c0.8,0.5,1.8,0.5,2.6,0
		c0.8-0.4,1.3-1.3,1.3-2.2L163.2,199.6z"/>
	<path fill-rule="evenodd" fill="#333333" d="M-19.6,170.5c-1.8,0-3.5,1-4.4,2.6l-24.4,42.4c-0.4,0.7-0.6,1.5-0.7,2.3
		c0,0.1,0,0.4,0,0.4c0,0.8,0.3,1.6,0.7,2.3l24.4,42.4c0.9,1.6,2.6,2.6,4.4,2.6l65.6-0.1c0.9,0,1.8-0.5,2.2-1.3
		c0.5-0.8,0.5-1.8,0-2.5l-14.4-25.2c-0.9-1.6-2.6-2.6-4.4-2.6H-1.2c-1.8,0-3.5-1-4.4-2.6l-6.2-10.7c-0.5-0.8-0.7-1.7-0.7-2.6
		c0-0.9,0.2-1.8,0.7-2.5l6.2-10.7c0.9-1.6,2.6-2.6,4.4-2.6h30.7c1.8,0,3.5-1,4.4-2.6l14.4-25.2c0.5-0.8,0.5-1.8,0-2.6
		c-0.4-0.8-1.3-1.3-2.2-1.3L-19.6,170.5z"/>
	<path fill-rule="evenodd" fill="#679E63" d="M115.1,213.4c0.3-0.2,0.7-0.2,1,0l8.1,4.7c0.3,0.2,0.5,0.5,0.5,0.9v9.4
		c0,0.4-0.2,0.7-0.5,0.9l-8.1,4.7c-0.3,0.2-0.7,0.2-1,0l-8.1-4.7c-0.3-0.2-0.5-0.5-0.5-0.9V219c0-0.4,0.2-0.7,0.5-0.9L115.1,213.4z"
		/>
	<path fill-rule="evenodd" fill="#333333" d="M278.8,200.6c0-1.8-1-3.5-2.6-4.4l-42.4-24.4c-0.7-0.4-1.5-0.6-2.3-0.7
		c-0.1,0-0.4,0-0.4,0c-0.8,0-1.6,0.3-2.3,0.7l-42.4,24.4c-1.6,0.9-2.6,2.6-2.6,4.4l0.1,65.6c0,0.9,0.5,1.8,1.3,2.2
		c0.8,0.5,1.8,0.5,2.5,0L213,254c1.6-0.9,2.6-2.6,2.6-4.4v-30.7c0-1.8,1-3.5,2.6-4.4l10.7-6.2c0.8-0.5,1.7-0.7,2.6-0.7
		c0.9,0,1.8,0.2,2.5,0.7l10.7,6.2c1.6,0.9,2.6,2.6,2.6,4.4v30.7c0,1.8,1,3.5,2.6,4.4l25.2,14.4c0.8,0.5,1.8,0.5,2.6,0
		c0.8-0.4,1.3-1.3,1.3-2.2L278.8,200.6z"/>
	<path fill-rule="evenodd" fill="#333333" d="M299.8,239.3c0,1.8,1,3.5,2.6,4.4l42.4,24.4c0.7,0.4,1.5,0.6,2.3,0.7
		c0.1,0,0.4,0,0.4,0c0.8,0,1.6-0.3,2.3-0.7l42.4-24.4c1.6-0.9,2.6-2.6,2.6-4.4l-0.1-65.6c0-0.9-0.5-1.8-1.3-2.2
		c-0.8-0.5-1.8-0.5-2.5,0l-25.2,14.4c-1.6,0.9-2.6,2.6-2.6,4.4v30.7c0,1.8-1,3.5-2.6,4.4l-10.7,6.2c-0.8,0.5-1.7,0.7-2.6,0.7
		c-0.9,0-1.8-0.2-2.5-0.7l-10.7-6.2c-1.6-0.9-2.6-2.6-2.6-4.4v-30.7c0-1.8-1-3.5-2.6-4.4l-25.2-14.4c-0.8-0.5-1.8-0.5-2.6,0
		c-0.8,0.4-1.3,1.3-1.3,2.2L299.8,239.3z"/>
	<path fill-rule="evenodd" fill="#333333" d="M510.7,200.6c0-1.8-1-3.5-2.6-4.4l-42.4-24.4c-0.7-0.4-1.5-0.6-2.3-0.7
		c-0.1,0-0.4,0-0.4,0c-0.8,0-1.6,0.3-2.3,0.7l-42.4,24.4c-1.6,0.9-2.6,2.6-2.6,4.4l0.1,65.6c0,0.9,0.5,1.8,1.3,2.2
		c0.8,0.5,1.8,0.5,2.5,0l25.2-14.4c1.6-0.9,2.6-2.6,2.6-4.4v-30.7c0-1.8,1-3.5,2.6-4.4l10.7-6.2c0.8-0.5,1.7-0.7,2.6-0.7
		c0.9,0,1.8,0.2,2.5,0.7l10.7,6.2c1.6,0.9,2.6,2.6,2.6,4.4v30.7c0,1.8,1,3.5,2.6,4.4l25.2,14.4c0.8,0.5,1.8,0.5,2.6,0
		c0.8-0.4,1.3-1.3,1.3-2.2L510.7,200.6z"/>
	<path fill-rule="evenodd" fill="#679E63" d="M462.5,214.4c0.3-0.2,0.7-0.2,1,0l8.1,4.7c0.3,0.2,0.5,0.5,0.5,0.9v9.4
		c0,0.4-0.2,0.7-0.5,0.9l-8.1,4.7c-0.3,0.2-0.7,0.2-1,0l-8.1-4.7c-0.3-0.2-0.5-0.5-0.5-0.9V220c0-0.4,0.2-0.7,0.5-0.9L462.5,214.4z"
		/>
</g>
<linearGradient id="SVGID_1_" gradientUnits="userSpaceOnUse" x1="533.6255" y1="234.6916" x2="623.2449" y2="214.0014">
	<stop  offset="0.1376" style="stop-color:#6ABF4B"/>
	<stop  offset="0.9" style="stop-color:#3DAE2B"/>
</linearGradient>
<path fill="url(#SVGID_1_)" d="M602.2,210.8C602.2,210.8,602.2,210.8,602.2,210.8c-0.2-0.1-0.3-0.2-0.5-0.3c0,0-0.1,0-0.1-0.1
	c-0.2-0.1-0.3-0.2-0.5-0.3c0,0-0.1-0.1-0.1-0.1c-1.8-1.1-3.7-2.1-5.6-3.2c-0.3-0.2-0.5-0.3-0.8-0.5c-0.5-0.3-0.9-0.5-1.4-0.8
	c-0.1-0.1-0.2-0.1-0.3-0.2c-1.8-1-3.6-2.1-5.4-3.1c-0.2-0.1-0.4-0.3-0.7-0.4c-2-1.1-4-2.3-5.9-3.4c-0.3-0.2-0.7-0.4-1-0.6
	c-2.3-1.3-4.5-2.6-6.6-3.8c-0.3-0.1-0.5-0.3-0.8-0.4c-0.5-0.3-0.9-0.5-1.4-0.8c-0.8-0.4-1.5-0.9-2.2-1.3c-1.4-0.8-2.7-1.6-3.9-2.3
	c-0.2-0.1-0.3-0.2-0.5-0.3c-1.8-1.1-3.5-2-4.8-2.8c-0.3-0.2-0.5-0.3-0.8-0.5c-0.6-0.4-1.2-0.7-1.7-1c-0.2-0.1-0.4-0.3-0.6-0.4
	c-0.3-0.2-0.6-0.4-0.9-0.5c-0.1,0-0.1-0.1-0.2-0.1c-0.1-0.1-0.3-0.2-0.4-0.2c-0.1,0-0.1-0.1-0.2-0.1c0,0-0.1-0.1-0.1-0.1l-21,12.1
	c-1.5,0.9-2.5,2.5-2.5,4.3v24.4c1.4,0.8,15.5,9,30.8,17.8c0.1,0,0.2,0.1,0.2,0.1c5.9,3.4,12.1,7,17.6,10.2c0.3,0.2,0.6,0.3,0.9,0.5
	c0.6,0.3,1.2,0.7,1.7,1c0.1,0.1,0.3,0.2,0.4,0.2c10.8,6.2,19,11,19,11c0,0,16.4-9.4,21.8-12.6c0.9-0.7,1.5-1.7,1.8-2.9
	c0-6.1,0-25.4,0-25.4C625.6,224.3,615.1,218.3,602.2,210.8z"/>
<linearGradient id="SVGID_2_" gradientUnits="userSpaceOnUse" x1="618.7231" y1="206.7122" x2="560.7319" y2="173.231">
	<stop  offset="0" style="stop-color:#6ABF4B"/>
	<stop  offset="1" style="stop-color:#3F873F"/>
</linearGradient>
<path fill="url(#SVGID_2_)" d="M555.2,183.6c0.1,0.1,0.2,0.1,0.4,0.2c0.1,0,0.1,0.1,0.2,0.1c0.2,0.1,0.5,0.3,0.9,0.5
	c0.2,0.1,0.4,0.2,0.6,0.4c0.5,0.3,1.1,0.6,1.7,1c0.3,0.1,0.5,0.3,0.8,0.5c1.4,0.8,3,1.8,4.8,2.8c0.2,0.1,0.3,0.2,0.5,0.3
	c1.2,0.7,2.6,1.5,3.9,2.3c0.7,0.4,1.5,0.9,2.2,1.3c0.5,0.3,0.9,0.5,1.4,0.8c0.2,0.1,0.5,0.3,0.8,0.4c2.2,1.2,4.4,2.5,6.6,3.8
	c0.3,0.2,0.7,0.4,1,0.6c2,1.2,4,2.3,5.9,3.4c0.2,0.1,0.4,0.3,0.7,0.4c1.9,1.1,3.7,2.1,5.4,3.1c0.1,0.1,0.2,0.1,0.3,0.2
	c0.5,0.3,0.9,0.5,1.4,0.8c0.3,0.2,0.6,0.3,0.8,0.5c2.5,1.4,4.4,2.5,5.6,3.2c0,0,0.1,0.1,0.1,0.1c0.2,0.1,0.4,0.2,0.5,0.3
	c0,0,0.1,0,0.1,0.1c0.2,0.1,0.4,0.2,0.4,0.2c0,0,0,0,0,0c0,0,0,0,0,0l19.9-11.4c1.7-1,1.7-3.4,0-4.3l-41.7-24.1
	c-1.4-0.6-3-0.5-4.3,0.3l-21.2,12.2c0,0,0.1,0,0.1,0.1C555.1,183.6,555.1,183.6,555.2,183.6z"/>
<linearGradient id="SVGID_3_" gradientUnits="userSpaceOnUse" x1="596.1309" y1="275.4156" x2="538.3519" y2="242.0568">
	<stop  offset="0" style="stop-color:#6ABF4B"/>
	<stop  offset="1" style="stop-color:#3F873F"/>
</linearGradient>
<path fill="url(#SVGID_3_)" d="M583.1,254.2c-0.1-0.1-0.3-0.2-0.4-0.2c-0.6-0.3-1.2-0.7-1.7-1c-0.3-0.2-0.6-0.3-0.9-0.5
	c-6.3-3.7-12.8-7.4-17.6-10.2c-0.1,0-0.2-0.1-0.2-0.1c-4.4-2.5-7.3-4.2-7.3-4.2c0,0-13.2,7.6-19.9,11.4c-1.7,1-1.7,3.4,0,4.3
	l41,23.6c1.3,0.8,2.9,0.9,4.3,0.3c5.6-3.3,21.6-12.5,21.6-12.5C602,265.2,593.1,260.1,583.1,254.2z"/>
<path fill="none" stroke="#000000" stroke-miterlimit="10" d="M626.3,194"/>
<g>
</g>
<g>
</g>
<g>
</g>
<g>
</g>
<g>
</g>
<g>
</g>
<g>
</g>
<g>
</g>
<g>
</g>
<g>
</g>
<g>
</g>
<g>
</g>
<g>
</g>
<g>
</g>
<g>
</g>
</svg>
